/* XPM */
static char *c1e9d614d20a49bd93a6e3fef079e3f0PYLjfRq4A3ilrlxB[] = {
/* columns rows colors chars-per-pixel */
"64 64 238 2 ",
"   c None",
".  c #030202",
"X  c #080909",
"o  c #160806",
"O  c #0C0912",
"+  c #0C1419",
"@  c #1C1A14",
"#  c #1B151C",
"$  c #191816",
"%  c #121C0C",
"&  c #2B1506",
"*  c #21191A",
"=  c #301608",
"-  c #1A241B",
";  c #00241D",
":  c #342A11",
">  c #1B1A25",
",  c #0A1720",
"<  c #281E28",
"1  c #002D2C",
"2  c #0C2F30",
"3  c #252226",
"4  c #343528",
"5  c #362C34",
"6  c #253432",
"7  c #383A36",
"8  c #2E2C2B",
"9  c #492808",
"0  c #4F2E10",
"q  c #583614",
"w  c #4D3517",
"e  c #673914",
"r  c #523A25",
"t  c #44353B",
"y  c #6E3D23",
"u  c #19403F",
"i  c #394638",
"p  c #6B461D",
"a  c #71481A",
"s  c #474B3C",
"d  c #574D33",
"f  c #784826",
"g  c #79572D",
"h  c #7A563A",
"j  c #6E4E30",
"k  c #71683F",
"l  c #3A3A42",
"z  c #433F43",
"x  c #0C4C4D",
"c  c #294546",
"v  c #394545",
"b  c #2E554E",
"n  c #0E655D",
"m  c #2D6757",
"M  c #005B61",
"N  c #3A5F65",
"B  c #067779",
"V  c #0F7374",
"C  c #366B75",
"Z  c #494645",
"A  c #4A544A",
"S  c #4B4753",
"D  c #534B56",
"F  c #4A5354",
"G  c #575658",
"H  c #53514C",
"J  c #675446",
"K  c #755C4E",
"L  c #5B6459",
"P  c #4A7553",
"I  c #57755D",
"U  c #63645D",
"Y  c #766F4D",
"T  c #5B5864",
"R  c #5B676B",
"E  c #4C6368",
"W  c #686867",
"Q  c #6C7269",
"!  c #78746C",
"~  c #6C6B74",
"^  c #6B7573",
"/  c #797878",
"(  c #766B6C",
")  c #895A36",
"_  c #975D34",
"`  c #895228",
"'  c #A15E34",
"]  c #856336",
"[  c #976336",
"{  c #A36A3D",
"}  c #A56537",
"|  c #AA753E",
" . c #B37036",
".. c #C7793C",
"X. c #805743",
"o. c #996944",
"O. c #997948",
"+. c #87765A",
"@. c #92714F",
"#. c #A86846",
"$. c #A97747",
"%. c #B87748",
"&. c #BA7954",
"*. c #AD744D",
"=. c #83776F",
"-. c #BF7D65",
";. c #A35B45",
":. c #C67949",
">. c #C37B54",
",. c #D57F51",
"<. c #CF7448",
"1. c #00877F",
"2. c #3C8073",
"3. c #559079",
"4. c #7A817A",
"5. c #699370",
"6. c #61885E",
"7. c #B9875A",
"8. c #AF8B5E",
"9. c #818379",
"0. c #829874",
"q. c #8F8C6E",
"w. c #AC8A6D",
"e. c #9DAE78",
"r. c #C78349",
"t. c #CB8353",
"y. c #CC8B54",
"u. c #C8865B",
"i. c #D38C54",
"p. c #D78858",
"a. c #C7935B",
"s. c #DB935C",
"d. c #D6945A",
"f. c #D0834D",
"g. c #E5955D",
"h. c #D58C66",
"j. c #C99465",
"k. c #DA9666",
"l. c #C8977A",
"z. c #DA9B74",
"x. c #C88C68",
"c. c #E39C65",
"v. c #E49D6D",
"b. c #E79767",
"n. c #F49D69",
"m. c #EB9870",
"M. c #D6A36A",
"N. c #EAA46C",
"B. c #FAA76B",
"V. c #EAA576",
"C. c #F5A473",
"Z. c #FCAC7C",
"A. c #F9AC74",
"S. c #F6B47B",
"D. c #F9B379",
"F. c #E5B178",
"G. c #2C7D80",
"H. c #4F7485",
"J. c #7C7B86",
"K. c #179598",
"L. c #0F8B90",
"P. c #2B9194",
"I. c #2C9BA4",
"U. c #33AEAF",
"Y. c #21ACAD",
"T. c #4F918C",
"R. c #6E8B8A",
"E. c #6EA78D",
"W. c #4EAEA9",
"Q. c #74A8AA",
"!. c #61A099",
"~. c #5FC2A8",
"^. c #6ECCB9",
"/. c #5FCFD1",
"(. c #71F6FB",
"). c #888A89",
"_. c #8C948B",
"`. c #969495",
"'. c #949490",
"]. c #A99999",
"[. c #B59F8A",
"{. c #97A49B",
"}. c #B6A999",
"|. c #A2A58A",
" X c #809DA5",
".X c #95AEA7",
"XX c #A5A7A8",
"oX c #B7A9AA",
"OX c #A8B1AB",
"+X c #B6B3A9",
"@X c #B4AFB7",
"#X c #B7B7B7",
"$X c #AAAFB7",
"%X c #CA9E81",
"&X c #D8B18E",
"*X c #EAAA83",
"=X c #FAB788",
"-X c #F9B697",
";X c #EBB38D",
":X c #C2B9B8",
">X c #C9B8AD",
",X c #E4BDA0",
"<X c #8ECBB0",
"1X c #B8CBB7",
"2X c #FBC798",
"3X c #FDC18F",
"4X c #CDC9B3",
"5X c #E8C8A9",
"6X c #FDCAA8",
"7X c #FFD3A2",
"8X c #FCD5B8",
"9X c #E6CCB1",
"0X c #BBBEC4",
"qX c #C3BEC3",
"wX c #83D5CB",
"eX c #BCC3C5",
"rX c #B5D0D1",
"tX c #95FAFC",
"yX c #8CF2F2",
"uX c #B8F8F8",
"iX c #A8ECEC",
"pX c #A6E1E1",
"aX c #C6C7C6",
"sX c #CDD4D7",
"dX c #D9D7D8",
"fX c #CFCDCE",
"gX c #E7D8C8",
"hX c #F8D9C0",
"jX c #E1DBDA",
"kX c #CFE1D8",
"lX c #EEE3DD",
"zX c #F5E5D8",
"xX c #EEE2C8",
"cX c #DFDFE1",
"vX c #CEEDEC",
"bX c #E5E2E3",
"nX c #EDF6F4",
"mX c #E7D9E6",
/* pixels */
"                                                                                                                                ",
"                                                                                                                                ",
"                                                                                                                                ",
"                                                                                                                                ",
"                                                                                                                                ",
"                                                                                                                                ",
"                                                                                                                                ",
"                                                                                                                                ",
"                                                                                                                                ",
"                                                                                                                                ",
"                                                                                                                                ",
"                                                                                                                                ",
"                                                                                                                                ",
"                                                                                                                                ",
"                                                                                                                                ",
"                                                                                                                                ",
"                                                                                                                                ",
"                                                                                                                                ",
"                                                                                                                                ",
"                                                                                                                                ",
"                                                                                                                                ",
"                                                                                                                                ",
"                                                                                                                                ",
"                                                                                                                                ",
"                                                                                                                                ",
"                                                                                                                                ",
"                                                                                                                                ",
"                                                                  B M B                                                         ",
"                                                              P.V C H.H.C V                                                     ",
"                                                            L.C T D G T T N M                                                   ",
"                                                          1.Q.R G Z W Z G E m V L.                                              ",
"                                                          K.vX/ ! 9.! / / v c T.K.                                              ",
"                                                          K..XU D G H s s i c T.K.                                              ",
"                                                          K.E.L T S 7 4 4 i c C L.                                              ",
"                                                          K.N D W > 5 4 % - 6 C L.                                              ",
"                                                          P.Q.G T O O X @ - + C B                                               ",
"                                                          W.^ 5 t # # # 3 D E x x L.                                            ",
"                                                        W.Q.R t t * < O 5 G F 6 x B                                             ",
"                                                        pXkXJ.S 5 O X + < `.nX7 6 1                                             ",
"                                                        b _./ > . A W 6 o t ].4 7 ;                                             ",
"                                                  3.6.6.4 i U $ X _.'.Q . * W Z Z - E.<XwX                                      ",
"                                                I @.7.7.w 4 4 @ X $ % % @ . . 3 + @ q.4X4X.X^.                                  ",
"                                        T.5.q.q.w.l.V.*X+.H $ . . 3 $ 3 + + 5 # 3 o = K l.8XgX1X<X                              ",
"                                        Q $.%.%.k.h.h.x.: @ 3 < # O X X l J.Z 5 8 & & h ;.-X6X8X9X1X^.                          ",
"                                        +.%.r.r.V.b.:.#.= @ + > # O # < D ~ S * = : = X.&.=X7X7X7X5X>X                          ",
"                                      3.w.c.S.S.Z.C.=X*X) r @ * @ o o o o o & J h @.8.] &.2X3X=XN.=X-X}.~.                      ",
"                                    3.Y M.S.=X=Xv.m.C.Z.A.7.q & & & o o o = 0 7.&.%.{ j.=XZ.S.N.k.s.v.*Xq.T.                    ",
"                                    5.a.y.i.d.d.:.i.p.n.B.A.;Xl.w.X.h Y O.o.$.%.%.y.V.=XZ.C.g.i.y.:.:.s.o.I                     ",
"                                    0.k.t.k.a.j.%.t.s.b.B.D.*Xz.-.) ) ) $.{ { %.%.u.F.=XZ.n.g.d.y.%.,.p.O.P                     ",
"                                    |.k._ } *.$.{ $.%.b.B.=Xv.k.z.u.$.[ ' } t.N.N.S.=XN.b.p.t.:.u.&.>.#.) P                     ",
"                                    Y f 9 9 9 9 g ] [ >.n.B...r.r.c.N.A.C.b.N.s.k.i.i.t.t.%.&.&.&.#.{ [ ] P                     ",
"                                  6.+.o.e 0 0 0 9 q ) *.C.g..... .r.i.c.C.Z.=XN.c.s.i.:.:.>.>.*.#.#._ ) k m                     ",
"                                5.O.7.h.&.o.` ` p e f #.k.C.C.g.i. .| | %.t.t.t.y.t.f.p.h.>.*.{ _ [ [ j i V                     ",
"                                e.F.=X=X=XV.k.V.*.o.y y u.v.=XA.c.' [ [ { *.%.>.%.t.,.<.<.c.k.u.%._ ` d 2.                      ",
"                              E.4X2X6X6X;X=XS.N.y.&._ e $.a.D.A.V.' [ ) [ #.#.>.>.t.<.f.f.s.s.k.y.[ ) A                         ",
"                            ^.rXgXhXhX8X6X6X3X3Xz.u.*.f e $.D.B.v._ _ f g ) #.u.t.p.,.g.s.N.N.S.=Xj.@.v                         ",
"                        yXpXrXsXjXlXlXzXgX9X9X5X,X&Xw.h q p a.M.k.} [ a g o.>.m.b.C.n.n.Z.V.*X;X&X,X&XL                         ",
"                      tXvXsXaX0XdXbXfXaX#XoXoXoX}.[.w.Y d w d j ] O.] p p 8.h.m.b.n.Z.=X-X6X,X9XhXxXzXkXpX(.                    ",
"                  (.uXvXfXaX#XaXdXbXaX:X#X@X#X@X).=.( K G A 3.T.5.d d y q f { u.p.v.z.;X&X4X+X:XaXgXgXdXrXpXtX                  ",
"                  tXnXbXaXaXeXaXcXlX4X#X#X@X$X$X).4.! W D b I.Y.U.n b s r j ) j.x.%X%X,X+X1X#X#XqXdXlXfXsXrXiX                  ",
"                wXvXdX4X#X#XeXsXcXdX#X#X@XXXXX{./ ! U H 7 x           x i r j @.+.+.+.! / XXoX:X@X:XqXdXmXsXrXpXuXtX            ",
"              /..XfXaX+XeXeXaXbXsXaX+X+XXX`._._.Q ^ W H # 1             m Z J J d L W ( / '.].oX#X#X#XfXdXjXaX1XsXpXyX          ",
"          U.W.T.R.W W / _._.XX#X0X#X:XoX`.).9.9.~ ~ T z @ 1             G.6 8 7 i L G ~ Q ^ ).'.{.OX#XOX#XfXdXdX0XeXrXiXtX      ",
"      Y.I.P.R.R W F i 7 7 Z T ~ ).).].].=.! W Q ~ T S 5 @ 1             V 1 , v v v D W W ^ W 4.).{.{.OXXX_./ / / / / R.Q./.    "
};
