/* XPM */
static char *_d04feaed9914be2e8c4ee22b0b55e10PfS4BxkOjz8subqX[] = {
/* columns rows colors chars-per-pixel */
"64 64 251 2 ",
"   c None",
".  c #070807",
"X  c #180C05",
"o  c #16130C",
"O  c #0C0D12",
"+  c #1D1C1C",
"@  c #181717",
"#  c #0C1212",
"$  c #371803",
"%  c #241A10",
"&  c #1D231D",
"*  c #15201A",
"=  c #06201F",
"-  c #37230A",
";  c #26231B",
":  c #342513",
">  c #3B2817",
",  c #312B0E",
"<  c #1C1B22",
"1  c #231C28",
"2  c #062A29",
"3  c #172628",
"4  c #01322C",
"5  c #003738",
"6  c #113A36",
"7  c #242325",
"8  c #2B2C26",
"9  c #242A2B",
"0  c #292629",
"q  c #352B26",
"w  c #2A312C",
"e  c #37352A",
"r  c #2A3436",
"t  c #3A3D3B",
"y  c #373736",
"u  c #332C32",
"i  c #472509",
"p  c #462B13",
"a  c #463514",
"s  c #583319",
"d  c #4F2F11",
"f  c #673918",
"g  c #483827",
"h  c #423D3B",
"j  c #453835",
"k  c #5C3E2A",
"l  c #653E22",
"z  c #421D03",
"x  c #3B423C",
"c  c #294739",
"v  c #1B4D30",
"b  c #634519",
"n  c #46453C",
"m  c #52462E",
"M  c #674527",
"N  c #774A27",
"B  c #735034",
"V  c #7B6B3A",
"C  c #333A41",
"Z  c #473E43",
"A  c #0F4A4A",
"S  c #2A4648",
"D  c #3B4444",
"F  c #355657",
"G  c #02675B",
"H  c #1A7A7D",
"J  c #116D6D",
"K  c #39686D",
"L  c #175A68",
"P  c #4C4C4B",
"I  c #484746",
"U  c #544D4A",
"Y  c #4B544D",
"T  c #52524D",
"R  c #535549",
"E  c #544E54",
"W  c #4D5652",
"Q  c #545453",
"!  c #585959",
"~  c #474D54",
"^  c #635A55",
"/  c #6F5948",
"(  c #5B615B",
")  c #43645D",
"_  c #64645D",
"`  c #756856",
"'  c #70714E",
"]  c #5B5B62",
"[  c #635C66",
"{  c #5B6466",
"}  c #4D6E6D",
"|  c #6C6C6C",
" . c #666766",
".. c #726B6C",
"X. c #6D736C",
"o. c #757668",
"O. c #6D6D73",
"+. c #716A72",
"@. c #6D7474",
"#. c #747A75",
"$. c #777778",
"%. c #995B2C",
"&. c #8A5B38",
"*. c #9B5E36",
"=. c #895A2B",
"-. c #876738",
";. c #99653A",
":. c #A46B3D",
">. c #A86538",
",. c #B3743D",
"<. c #AD6B34",
"1. c #9E5728",
"2. c #8B5F42",
"3. c #955F40",
"4. c #8A6546",
"5. c #966647",
"6. c #876C58",
"7. c #927452",
"8. c #AB6D43",
"9. c #A66C47",
"0. c #B46D42",
"q. c #AB7243",
"w. c #A77348",
"e. c #B37245",
"r. c #B7774A",
"t. c #B67B55",
"y. c #A87A55",
"u. c #A77E61",
"i. c #807F7D",
"p. c #C47B4C",
"a. c #C77B47",
"s. c #C77E51",
"d. c #0E827F",
"f. c #548F74",
"g. c #768E76",
"h. c #62A079",
"j. c #92845D",
"k. c #B68358",
"l. c #B48451",
"z. c #86847C",
"x. c #939177",
"c. c #AF8D6B",
"v. c #AFA57B",
"b. c #89A479",
"n. c #C88555",
"m. c #D78A58",
"M. c #D8935A",
"N. c #CA844E",
"B. c #E9975E",
"V. c #EA905C",
"C. c #C38C67",
"Z. c #CB9466",
"A. c #DB9466",
"S. c #D1976F",
"D. c #E79A65",
"F. c #F49E6B",
"G. c #E89D70",
"H. c #D2A37B",
"J. c #E9A269",
"K. c #F2A36B",
"L. c #FBA76C",
"P. c #E9A676",
"I. c #F2AB7B",
"U. c #F8A975",
"Y. c #FDB27C",
"T. c #F8B17A",
"R. c #E5A25E",
"E. c #2E7780",
"W. c #757A81",
"Q. c #557E80",
"!. c #807E81",
"~. c #138E8E",
"^. c #2BABAB",
"/. c #1BA2A2",
"(. c #569987",
"). c #509488",
"_. c #7C8784",
"`. c #709297",
"'. c #51AA91",
"]. c #6BA792",
"[. c #55AFAB",
"{. c #7DBAB5",
"}. c #5CD9D8",
"|. c #78E8EE",
" X c #73E3DF",
".X c #848684",
"XX c #8B8B8B",
"oX c #888686",
"OX c #958E89",
"+X c #8A918C",
"@X c #8B8F91",
"#X c #8B9494",
"$X c #989699",
"%X c #93918E",
"&X c #A79B94",
"*X c #9CA39D",
"=X c #8DAB8D",
"-X c #A2A29B",
";X c #B1B48C",
":X c #95B3B6",
">X c #ABABAC",
",X c #A7A6A7",
"<X c #B6ACAA",
"1X c #A9B4AC",
"2X c #ADB5B5",
"3X c #B4B4B4",
"4X c #BAB7B9",
"5X c #B4B1B0",
"6X c #9F9CA2",
"7X c #D9A686",
"8X c #C9B08F",
"9X c #FEB482",
"0X c #F7B986",
"qX c #FCBD96",
"wX c #EDB085",
"eX c #C3B6B0",
"rX c #E1BFA6",
"tX c #91CFAC",
"yX c #B9C4BD",
"uX c #B3D5B4",
"iX c #FFC393",
"pX c #FEC698",
"aX c #FFC892",
"sX c #DAD7B9",
"dX c #CCC6B2",
"fX c #FDCAA4",
"gX c #FFD2A7",
"hX c #EDCFB0",
"jX c #F8E1BF",
"kX c #B9BCC2",
"lX c #87BEC1",
"zX c #C6BEC4",
"xX c #8ED2D1",
"cX c #BAC5C7",
"vX c #B6D7D5",
"bX c #ACD1CF",
"nX c #BADDE7",
"mX c #91F0F2",
"MX c #A8E9EC",
"NX c #A4E5DA",
"BX c #C6C8C7",
"VX c #D6D4CB",
"CX c #C7CBD2",
"ZX c #CBD5D4",
"AX c #D8D7D8",
"SX c #D2CED0",
"DX c #E7DBD3",
"FX c #C7DEE6",
"GX c #E6D9E4",
"HX c #E7EAEC",
"JX c #D7ECDB",
/* pixels */
"                                                                                                                                ",
"                                                                                                                                ",
"                                                                                                                                ",
"                                                                                                                                ",
"                                                                                                                                ",
"                                                            /.                                                                  ",
"                                                        /.E.L J                                                                 ",
"                                                      ~.K W.E } J                                                               ",
"                                                    ^.K F ! Q ] F H                                                             ",
"                                                    E.{ W Y ! _ ~ K                                                             ",
"                                                  ^.K  .W W Q  .E ) ~.                                                          ",
"                                                  /.}  .W W ! +.! { H                                                           ",
"                                                  /.} | ( ! ] Q U } H                                                           ",
"                                                  /.Q.|  .z.$.$.I ) E.                                                          ",
"                                                  /.`. .R R y h n F H                                                           ",
"                                                  ^.:X| R ; q h y S L                                                           ",
"                                                  ^.:X@.T y n P I C A                                                           ",
"                                                  ^.vX$.! P I ! I F A                                                           ",
"                                                  ~.:X.XQ y y Z Q ) G                                                           ",
"                                                  ~.)...U u u I I ) G                                                           ",
"                                                  ~.} | e 8 y 0 y S J                                                           ",
"                                                  ~.K ! P o. . .XXF G                                                           ",
"                                                  d.K T 1 7 & & y S J                                                           ",
"                                                  J c t 0 7 8 & + S J                                                           ",
"                                                (.S Y ..t @ . . @ * 6                                                           ",
"                                            ].=Xc 9 ! -Xe . . O @ & @ A                                                         ",
"                                          ].g.m w D #.R o @ . O & I y t bX                                                      ",
"                                        h.' a p h ZX1Xn @ @ y @ W 2X$Xj 8X<XvXmX                                                ",
"                                      g.' a - > n SX,XI O O < # _.ZXCXe 4.7XrXsXuX                                              ",
"                                    b.4.M a - : e %XQ 8 3 # . O g.HXHXn $ 9.P.wXhXuX                                            ",
"                                h.x.6.M p $ - e 8 Q I e # t h ; 7 I 4X^ a b %.n.fXjXdXtX                                        ",
"                              [.;Xl.N d $ - : e ; P e @ @ ,X..^ @ 0 $X^ - b q.P.pXjXiX;X                                        ",
"                            h.8XS.r.N s p : > j n h e o . ,X .Q + I  .q : M k.J.iXfXgX8XtX                                      ",
"                            ;XG.M.e.=.N M p : > _ 8 Q ! + O.I t @ @ u 7 : B w.A.qXgXgXwX;XtX                                    ",
"                          ).v.m.n.G.I.qXZ.&.p > o @ + 9 9 @XXX| o O t Z q s *.G.qXfXqXfXH.uX                                    ",
"                          f.k.p.D.K.0XaXpXZ.&.d X o . r O 9 y P O ; e U > M *.A.wXwXqXpXpXsXNX                                  ",
"                          x.w.N.D.9XiXpXiXwXk.&.p X q U o q e y o ; : % - N %.p.A.P.qXiXgXjXJX                                  ",
"                        (.c.w.a.K.T.T.K.T.9X0XH.7.s k m : X % g g : i M 4.S.>.n.m.G.I.iXiXgXsXxX                                ",
"                        f.c.l.,.D.U.K.J.D.U.T.0XwXk.N M M $ $ M B M ;.t.G.A.p.F.V.m.K.Y.Y.P.H.tX                                ",
"                        g.Z.n.<.<.m.J.U.K.D.K.T.iXwXH.k.y.C.S.7X7XH.n.N.p.p.V.U.M.m.J.Y.K.D.,.v.                                ",
"                        g.0XP.A.e.%.>.M.L.L.B.K.I.iXpX0X0X0XI.D.n.e.<.a.M.U.Y.0Xm.r.M.J.K.M.,.7.f.                              ",
"                        b.0XT.I.Z.e.>.<.D.Y.B.K.Y.iXpX0XI.I.U.Y.G.A.M.R.T.9X9XI.Z.l.n.J.K.B.a.w.f.                              ",
"                        =XiX9X9XI.M.<.1.N.J.T.9XiXpXiXwXA.m.m.s.m.m.M.K.9X9X9XG.n.r.r.A.L.L.m.t.o.[.                            ",
"                        ;X0X9X9XJ.J.M.,.%.%.A.T.qX0XI.M.p.r.0.>.*.>.a.m.D.A.s.0.e.8.r.m.F.L.V.r.6.(.                            ",
"                        ;X0X9XY.L.D.N.8.=.f 9.C.P.P.A.N.,.>.;.*.8.q.,.e.r.t.t.w.9.8.r.s.F.K.D.9.` ).                            ",
"                        ;X0X9XU.F.M.n.;.&.f l 5.t.t.e.<.<.;.;.9.;.8.q.q.e.e.w.w.w.w.p.a.K.U.P.w.' f.                            ",
"                        ;XP.K.D.m.p.e.;.5.B i i &.w.:.%.;.;.*.:.e.e.w.:.:.8.8.q.w.:.r.a.B.L.0Xc.' ).                            ",
"                        ;XA.A.m.p.e.;.&.2.2.M z i 4.k.w.y.r.q.q.8.8.:.:.>.>.:.;.5.;.e.s.M.U.pX8X' (.                            ",
"                      '.c.n.n.r.0.:.=.-.&.3.N s - a 4.y.c.k.r.:.;.;.;.;.8.e.9.5.5.4.7.k.C.7XhXdXx.).                            ",
"                      (.c.t.w.w.5.&.-.-.y.9.5.l g - - > m o.j.V -.-.;.8.n.t.7./ 6.6.x.&X8XhXDXDXAXbX                            ",
"                      ].x.c.c.j.6.6.6.7.u.u.4.m > : , v     ).} ` 2.3.5.4.B ` ` z.OX-X<XeXeXdXBXBXvXxX                          ",
"                    MXJXVXsXsXdXeXeXOXx.6.6.B m : ; c           } ` / k g m ` X.#.+X*X>X<X4XcXZXBXcXcXNX|.                      ",
"                mXNXbXZXGXSX4X<X5X,XOXo.` ^ U g q r A             F 3 ; h P ! | @._.$X,X<X<X4XzXGXGXBXvXMX|.                    ",
"                MXvXZXAXSX4X5X5X,X$X@X#.X.T U j 0 3 5             5 2 3 D P ! O.O.$..X$X<X<X3X3XzXGXVXyXFXMX                    ",
"              mXvXBXZXAXBX4X4X>X>X$X$.@. .] E I 0 3 4             4 2 3 D I ! O.@.+.$.%X-X>X2X3XzXAXVXdXCXnX|.                  ",
"            |.nXBXAXAXCX4X5X>X,X$XoXO.@.O. .~ t 0 3 = 5           4 3 9 x I {  .O.| $.oX%X$X>X2X4XBXAXVX4XcXMX                  ",
"            MXcXBXAXSXkX4X5X,X$XXXW.@.O.+.[ ~ x w 7 9 4           A D 0 x I !  .| | X.$.oX$X,X2X1X2XBXAXBXcXFX                  ",
"          mXvX4XBXAXCX4X3X>X*X$XXX$.| | +.! I x w y y 5           A C 0 h I ! { | | o.$..XXX$X,X1X1XBXSXBX4XZXMX                ",
"        |.nXyX4XBXBX3X>X>X-X%XoX$.| | |  .! P t 8 y y 5           5 r 0 h I E ! !  . . .X.#.#.#.#.#...$.+X#X:XlX}.              ",
"        NXyX-X-X+X#XXX.X.X.Xz.z.$....._ Q ! T t 0 7 9 5           4 3 0 Z P E P P E Q ( #.oX#X@X.X%X.Xi._._._.`.[.              ",
"        {.+X.X#.@.$.$.@.#.#.X. .! U T T P W P t 0 < < 5           2 2 9 t t t r C ! $.$X3XBXCXAXBXzX5X>X1X1X,X#X).              ",
"       X:X,X>X,X2XkXzXSXZXAXZXBX5XXX^ n w w y t 0 1 1 5           4 3 7 & & 9 t $.>XSXAXBXkX>X$X$X$XXX.X#.$.@X6X:XxX            ",
"      vX2X$XXX+X*X>X3XzX4X4XCXZXAXkX#X! u ; + + 7 7 1 5           4 3 + @ 0 ~ @.$X4XyX*X+Xg. .T t C D P U ^  .$.,XxX}.          ",
"    xX6XoX+.] ( ! T E [ O.W.$X,XkXCXkX.XQ y 8 + 0 < + 5           A 3 + 0 I | +X@Xg. .( R n e e t W ! _ ^ ^ U E +.`.[.          "
};
